<svg viewBox="0 0 500 500" xmlns="http://www.w3.org/2000/svg"><path d="m341.75 187.7v38.24c62.92 0 66.4 29.73 66.4 66.4s-29.73 59.43-66.4 59.43v38.23c57.79 0 104.63-39.89 104.63-97.67s-11.54-104.63-104.63-104.63z" fill="#fff"/><path d="m341.75 187.7v38.24c62.92 0 66.4 29.73 66.4 66.4s-29.73 59.43-66.4 59.43v38.23c57.79 0 104.63-39.89 104.63-97.67s-11.54-104.63-104.63-104.63z" opacity=".15"/><path d="m53.62 123.45h288.13a0 0 0 0 1 0 0v323.75a41.88 41.88 0 0 1 -41.88 41.88h-204.37a41.88 41.88 0 0 1 -41.88-41.88v-323.75a0 0 0 0 1 0 0z" fill="#fff"/><path d="m293 123.45v323.75a41.88 41.88 0 0 1 -41.88 41.88h48.74a41.88 41.88 0 0 0 41.88-41.88v-323.75z" opacity=".15"/><ellipse cx="197.68" cy="295.82" fill="#b3814b" rx="48.38" ry="62.42" transform="matrix(.78790329 -.615799 .615799 .78790329 -140.24 184.48)"/><g fill="none" stroke="#000" stroke-linecap="round" stroke-linejoin="round" stroke-width="20"><path d="m165.51 242.66s3.45 46 32.17 53.16c23.27 5.81 30.47 51.95 30.47 51.95"/><path d="m131.72 82.49v-41.01"/><path d="m263.65 82.49v-41.01"/><path d="m197.62 82.49v-71.57"/></g><path d="m235.8 266a76.71 76.71 0 0 0 -22.1-19.34c15.23 25.65 13.49 55.68-5.43 70.46-14.69 11.48-35.81 10.69-54.46 0a79.56 79.56 0 0 0 5.76 8.51c21.23 27.16 55.5 35.84 76.55 19.39s20.88-51.83-.32-79.02z" opacity=".15"/><path d="m53.62 123.45h288.13a0 0 0 0 1 0 0v323.75a41.88 41.88 0 0 1 -41.88 41.88h-204.37a41.88 41.88 0 0 1 -41.88-41.88v-323.75a0 0 0 0 1 0 0z" fill="none" stroke="#000" stroke-linecap="round" stroke-linejoin="round" stroke-width="20"/><path d="m341.75 187.7v38.24c62.92 0 66.4 29.73 66.4 66.4s-29.73 59.43-66.4 59.43v38.23c57.79 0 104.63-39.89 104.63-97.67s-11.54-104.63-104.63-104.63z" fill="none" stroke="#000" stroke-linecap="round" stroke-linejoin="round" stroke-width="20"/><ellipse cx="197.68" cy="295.82" fill="none" rx="48.38" ry="62.42" stroke="#000" stroke-linecap="round" stroke-linejoin="round" stroke-width="20" transform="matrix(.78790329 -.615799 .615799 .78790329 -140.24 184.48)"/></svg>