<svg viewBox="0 0 500 500" xmlns="http://www.w3.org/2000/svg"><ellipse cx="410.71" cy="405.03" fill="#b3814b" rx="91.12" ry="70.62" transform="matrix(.61772237 -.78639626 .78639626 .61772237 -161.51 477.83)"/><path d="m474.82 340.86s-64 21-64.11 64.17c-.11 35-63 61.33-63 61.33" fill="none" stroke="#000" stroke-linecap="round" stroke-linejoin="round" stroke-width="20"/><path d="m467 333.37a55.79 55.79 0 0 0 -15.59-8.51c9.94 26.28 3.67 61.31-18.9 90.05-26.26 33.42-66 47.47-96.23 36.54a57.38 57.38 0 0 0 18.15 25.24c30.67 24.09 80.74 11.54 111.82-28s31.42-91.23.75-115.32z" opacity=".15"/><ellipse cx="125.21" cy="416.55" fill="#b3814b" rx="71.74" ry="55.6" transform="matrix(.98 -.21 .21 .98 -84.85 35.67)"/><path d="m196.32 409.93s-49.3-19.49-71.11 6.62c-17.67 21.15-69 5.46-69 5.46" fill="none" stroke="#000" stroke-linecap="round" stroke-linejoin="round" stroke-width="20"/><path d="m195.34 401.45c-3.63-16.87-16.79-29.81-34.51-36.43.26.9.57 1.77.77 2.69 6.46 30-19.7 61.11-58.44 69.45-17 3.65-33.52 2.33-47.33-2.83 8 28.35 43.53 44.66 81.08 36.57 38.73-8.33 64.9-39.43 58.43-69.45z" opacity=".15"/><ellipse cx="264.1" cy="258.27" fill="#b3814b" rx="72.8" ry="93.93" transform="matrix(.99697187 -.0777631 .0777631 .99697187 -19.29 21.32)"/><path d="m268 164.84s-33.91 60.56-3.86 93.43c24.35 26.64-5 90.49-5 90.49" fill="none" stroke="#000" stroke-linecap="round" stroke-linejoin="round" stroke-width="20"/><path d="m336.68 252.61c-2.91-37.31-22.37-68.11-48-81.25a114.31 114.31 0 0 1 14.26 47.5c4 51.73-25.18 96.19-65.27 99.32a59.28 59.28 0 0 1 -31.87-6.74c14.83 26.14 39.26 42.54 65.62 40.48 40.07-3.12 69.3-47.59 65.26-99.31z" opacity=".15"/><ellipse cx="71.92" cy="245.26" fill="#b3814b" rx="55.14" ry="71.15" transform="matrix(.78790329 -.615799 .615799 .78790329 -135.78 96.31)"/><path d="m35.25 184.67s3.94 52.42 36.67 60.59c26.52 6.62 34.73 59.21 34.73 59.21" fill="none" stroke="#000" stroke-linecap="round" stroke-linejoin="round" stroke-width="20"/><path d="m115.37 211.3a87.46 87.46 0 0 0 -26.37-22.76c16.54 28.94 14.27 62.43-7 79-16.42 12.83-39.9 12.24-60.85.66a90.51 90.51 0 0 0 7.34 11c24.2 31 63.26 40.86 87.26 22.1s23.81-59.04-.38-90z" opacity=".15"/><ellipse cx="125.21" cy="72.7" fill="#b3814b" rx="71.15" ry="55.14" transform="matrix(.79026197 -.61276914 .61276914 .79026197 -18.29 91.96)"/><path d="m185.94 36.27s-52.43 3.73-60.73 36.43c-6.73 26.49-59.35 34.5-59.35 34.5" fill="none" stroke="#000" stroke-linecap="round" stroke-linejoin="round" stroke-width="20"/><path d="m181.44 29.11c-6.41-8.26-15.39-13.62-25.65-16.2 5.12 22.81-6.24 50.78-30.54 69.63-20.4 15.81-44.75 21.17-64.37 16.21a44.11 44.11 0 0 0 8.12 17.55c18.66 24.06 59 24.06 90 0s41.1-63.12 22.44-87.19z" opacity=".15"/><ellipse cx="431.2" cy="118.94" fill="#b3814b" rx="73.75" ry="57.15" transform="matrix(.2395503 -.97088396 .97088396 .2395503 212.43 509.1)"/><path d="m457.13 50.26s-40.22 36.74-25.93 68.68c11.57 25.86-26.05 66.21-26.05 66.21" fill="none" stroke="#000" stroke-linecap="round" stroke-linejoin="round" stroke-width="20"/><path d="m450.6 47.89c5.6 14.8 6.85 32.74 2.34 51-9.75 39.54-42.51 65.47-73.15 57.91-.6-.15-1.16-.38-1.74-.55 6.53 17.24 19 30.23 35.48 34.29 30.65 7.57 63.4-18.36 73.16-57.91 9.57-38.77-6.57-76.16-36.09-84.74z" opacity=".15"/><g fill="none" stroke="#000" stroke-linecap="round" stroke-linejoin="round"><ellipse cx="410.71" cy="405.03" rx="91.12" ry="70.62" stroke-width="20" transform="matrix(.61772237 -.78639626 .78639626 .61772237 -161.51 477.83)"/><ellipse cx="125.21" cy="416.55" rx="71.74" ry="55.6" stroke-width="20.23" transform="matrix(.98 -.21 .21 .98 -84.85 35.67)"/><ellipse cx="264.1" cy="258.27" rx="72.8" ry="93.93" stroke-width="20" transform="matrix(.99697187 -.0777631 .0777631 .99697187 -19.29 21.32)"/><ellipse cx="71.92" cy="245.26" rx="55.14" ry="71.15" stroke-width="20" transform="matrix(.78790329 -.615799 .615799 .78790329 -135.78 96.31)"/><ellipse cx="125.21" cy="72.7" rx="71.15" ry="55.14" stroke-width="20" transform="matrix(.79026197 -.61276914 .61276914 .79026197 -18.29 91.96)"/><ellipse cx="431.2" cy="118.94" rx="73.75" ry="57.15" stroke-width="20" transform="matrix(.2395503 -.97088396 .97088396 .2395503 212.43 509.1)"/></g></svg>