<svg viewBox="0 0 500 500" xmlns="http://www.w3.org/2000/svg"><path d="m90 446.67h236.78a197.49 197.49 0 0 0 79.39-158.44c0-109.23-88.55-197.77-197.77-197.77s-197.77 88.54-197.77 197.77a197.48 197.48 0 0 0 79.37 158.44z" fill="#fff"/><path d="m14.89 328.83a197.73 197.73 0 0 0 75.11 117.84h236.78a197.79 197.79 0 0 0 75.13-117.84z" fill="#513b2c"/><path d="m208.4 90.46a200.21 200.21 0 0 0 -23.76 1.47c98 11.74 174 95.12 174 196.3a197.46 197.46 0 0 1 -79.39 158.44h47.52a197.49 197.49 0 0 0 79.39-158.44c.01-109.23-88.54-197.77-197.76-197.77z" opacity=".15"/><path d="m380.37 100.47h-304.14v40.06l304.14-.22a69.19 69.19 0 0 1 69.38 69.16v96.09a19.81 19.81 0 0 0 39.62 0v-96.09a109 109 0 0 0 -109-109z" fill="#faae3b"/><g opacity=".15"><path d="m380.37 100.47h-47.51a108.92 108.92 0 0 1 98 61.5 69.07 69.07 0 0 1 18.9 47.5v96.09a19.81 19.81 0 0 0 39.62 0v-96.09a109 109 0 0 0 -109.01-109z"/><path d="m332.85 100.47h.01z"/></g><path d="m34.81 53.33h291.76a0 0 0 0 1 0 0v47.14a0 0 0 0 1 0 0h-249.57a42.19 42.19 0 0 1 -42.19-42.19v-5a0 0 0 0 1 0 0z" fill="#fff"/><path d="m279.05 53.33h47.52v47.14h-47.52z" opacity=".15"/><g fill="none" stroke="#000" stroke-linecap="round" stroke-linejoin="round" stroke-width="20"><path d="m85.65 233.19h60.68"/><path d="m115.99 199.73h30.34"/><path d="m85.65 296.85h60.68"/><path d="m115.99 263.39h30.34"/><path d="m14.89 328.83a197.73 197.73 0 0 0 75.11 117.84h236.78a197.79 197.79 0 0 0 75.13-117.84z"/><path d="m380.37 100.47h-304.14v40.06l304.14-.22a69.19 69.19 0 0 1 69.38 69.16v96.09a19.81 19.81 0 0 0 39.62 0v-96.09a109 109 0 0 0 -109-109z"/><path d="m34.81 53.33h291.76a0 0 0 0 1 0 0v47.14a0 0 0 0 1 0 0h-249.57a42.19 42.19 0 0 1 -42.19-42.19v-5a0 0 0 0 1 0 0z"/><path d="m339.65 140.31h-262.51a197.78 197.78 0 0 0 12.86 306.36h236.78a197.76 197.76 0 0 0 12.87-306.36z"/></g></svg>